<?xml version="1.0" ?><svg id="Layer_1" style="enable-background:new 0 0 30 30;" version="1.1" viewBox="0 0 30 30" xml:space="preserve" xmlns="http://www.w3.org/2000/svg" xmlns:xlink="http://www.w3.org/1999/xlink"><style type="text/css">
	.st0{fill:#5EA3D7;}
	.st1{fill:#D8D2D2;}
</style><path class="st0" d="M25.5499878,2H11.4400024c-2.7600098,0-5,2.25-5,5.0100098v0.7199707H4.4500122c-0.5599976,0-1,0.4500122-1,1  c0,0.5500488,0.4400024,1,1,1h1.9899902v10.5400391H4.4500122c-0.5599976,0-1,0.4499512-1,1c0,0.5499878,0.4400024,1,1,1h1.9899902  v0.7199707C6.4400024,25.75,8.6799927,28,11.4400024,28h14.1099854c0.5499878,0,1-0.4500122,1-1V3  C26.5499878,2.4500122,26.0999756,2,25.5499878,2z M20.5899658,15.1199951h-8.1900024c-0.5499878,0-1-0.4400024-1-1  c0-0.5499878,0.4500122-1,1-1h8.1900024c0.5500488,0,1,0.4500122,1,1  C21.5899658,14.6799927,21.1400146,15.1199951,20.5899658,15.1199951z M20.5899658,9.7299805h-8.1900024  c-0.5499878,0-1-0.4499512-1-1c0-0.5499878,0.4500122-1,1-1h8.1900024c0.5500488,0,1,0.4500122,1,1  C21.5899658,9.2800293,21.1400146,9.7299805,20.5899658,9.7299805z"/></svg>