<?xml version="1.0" standalone="no"?>
<!DOCTYPE svg PUBLIC "-//W3C//DTD SVG 20010904//EN"
 "http://www.w3.org/TR/2001/REC-SVG-20010904/DTD/svg10.dtd">
<svg version="1.0" xmlns="http://www.w3.org/2000/svg"
 width="200.000000pt" height="200.000000pt" viewBox="0 0 200.000000 200.000000"
 preserveAspectRatio="xMidYMid meet">
<metadata>
Created by potrace 1.11, written by Peter Selinger 2001-2013
</metadata>
<g transform="translate(0.000000,200.000000) scale(0.100000,-0.100000)"
fill="#000000" stroke="none">
<path d="M1269 1981 c-43 -14 -72 -32 -111 -69 l-38 -36 0 28 0 28 -41 -37
c-44 -40 -61 -40 -35 -1 9 14 16 28 16 31 0 13 -36 2 -117 -34 -49 -21 -114
-46 -147 -56 -103 -29 -176 -92 -176 -152 0 -26 -10 -28 -56 -11 -17 6 -40 8
-50 4 -16 -6 -14 -10 16 -24 25 -12 30 -18 17 -20 -22 -4 -22 -18 1 -31 15 -9
15 -12 2 -20 -8 -6 -25 -8 -37 -4 -17 4 -23 1 -23 -10 0 -9 -11 -37 -25 -63
-31 -58 -32 -123 -6 -241 17 -80 17 -83 0 -83 -10 0 -26 -11 -35 -25 -21 -32
-12 -68 52 -202 24 -51 44 -97 44 -101 0 -16 36 -42 58 -42 15 0 22 -6 22 -18
0 -34 53 -124 108 -183 30 -33 53 -61 51 -62 -2 -1 -13 -7 -24 -12 -11 -6 -33
-38 -50 -72 -16 -33 -50 -83 -75 -110 -44 -50 -46 -51 -130 -63 -230 -33 -322
-99 -355 -258 l-7 -32 882 0 881 0 -6 23 c-20 69 -69 149 -112 182 -49 38
-153 74 -268 95 -65 12 -74 16 -125 69 -39 40 -60 70 -70 105 -9 28 -24 54
-35 60 -11 6 -22 12 -24 13 -2 1 21 29 51 62 55 59 108 149 108 182 0 12 9 19
27 21 23 2 34 15 66 78 36 72 77 169 92 218 8 29 -18 72 -44 72 -18 0 -18 3
-5 53 28 97 31 329 5 313 -21 -13 -17 36 5 65 13 18 24 35 24 37 0 4 -37 -4
-64 -14 -14 -5 -15 -2 -6 21 12 32 7 43 -13 27 -10 -9 -17 -3 -32 23 -10 19
-33 47 -52 61 -27 21 -31 28 -23 44 16 29 12 32 -21 15 l-30 -16 15 30 c9 16
28 39 42 50 26 20 26 21 5 21 -26 0 -73 -23 -120 -57 l-33 -26 12 24 c7 13 24
36 38 52 27 28 17 35 -21 16 -14 -7 -8 4 18 30 39 40 35 47 -16 32z m-304
-437 c50 -4 122 -1 160 5 123 18 214 -22 269 -119 26 -46 31 -67 33 -132 l2
-77 -32 5 c-18 3 -43 9 -57 14 -55 18 -84 20 -172 9 -74 -10 -96 -17 -114 -36
-30 -32 -86 -32 -107 1 -14 20 -29 25 -111 35 -92 12 -150 6 -245 -25 -20 -6
-8 93 20 180 36 110 105 160 209 150 30 -2 96 -7 145 -10z m-71 -352 c64 -29
69 -63 25 -150 -45 -86 -78 -105 -172 -99 -54 3 -73 9 -93 28 -52 48 -74 127
-51 182 14 32 37 47 92 61 39 10 155 -3 199 -22z m462 8 c15 -6 31 -25 40 -46
21 -50 3 -124 -42 -173 -32 -36 -33 -36 -113 -36 -75 0 -82 2 -111 30 -56 53
-88 137 -68 180 10 22 62 48 118 59 34 6 145 -2 176 -14z m-862 -83 c4 -19 3
-26 -3 -22 -7 3 -8 0 -5 -9 3 -9 9 -14 13 -12 3 2 5 -17 3 -42 -2 -38 2 -52
24 -77 18 -21 22 -23 15 -8 -6 12 -11 32 -10 45 0 17 4 13 15 -17 8 -22 12
-45 9 -53 -2 -7 -1 -11 4 -8 5 3 11 -7 14 -22 3 -15 9 -35 13 -45 6 -15 3 -18
-16 -15 -13 1 -26 10 -30 18 -4 8 -24 50 -45 93 -41 84 -62 198 -34 182 8 -5
6 1 -4 12 -14 16 -15 22 -5 26 17 6 34 -12 42 -46z m1059 30 c-4 -6 -6 -31 -4
-55 2 -33 -6 -62 -37 -125 -21 -45 -44 -94 -50 -109 -13 -32 -60 -42 -47 -10
3 9 9 29 12 44 3 15 9 26 12 23 4 -2 7 11 8 30 1 18 6 41 12 52 9 15 10 12 6
-16 -6 -35 -6 -35 15 -16 16 15 20 28 17 66 -2 26 1 45 5 43 4 -3 8 -3 8 0 0
2 3 13 6 23 5 15 4 16 -5 3 -9 -12 -10 -9 -5 15 4 17 11 35 16 42 12 15 41 5
31 -10z m-514 -64 c24 -70 64 -129 103 -149 18 -9 58 -17 92 -17 80 -2 133 24
163 78 14 25 23 33 23 22 0 -10 5 -15 10 -12 14 8 14 13 -25 -131 -19 -70 -47
-147 -61 -172 -41 -70 -173 -198 -230 -223 -66 -30 -162 -30 -228 0 -57 25
-189 153 -230 223 -30 51 -99 291 -85 296 5 2 9 11 9 20 0 9 13 -5 29 -30 21
-33 40 -49 68 -59 53 -18 141 -16 181 5 42 22 86 83 102 143 23 81 53 84 79 6z
m-136 -697 c19 -4 26 -3 22 3 -3 7 0 8 9 5 9 -3 16 -10 16 -15 0 -6 8 -5 19 1
11 5 28 10 38 9 13 -1 11 -3 -7 -9 -22 -7 -20 -8 12 -7 20 1 34 6 30 11 -3 5
2 7 11 3 10 -4 17 -1 17 6 0 8 3 8 9 -1 7 -11 19 -9 63 12 82 39 82 32 1 -22
-40 -26 -80 -58 -89 -70 -19 -27 -44 -115 -44 -154 0 -51 -16 -29 -29 39 -20
108 -32 127 -109 177 -79 51 -104 77 -40 42 24 -13 56 -27 71 -30z"/>
<path d="M690 1157 c-35 -18 -36 -43 -2 -77 27 -27 37 -30 89 -30 32 0 65 5
73 11 12 8 9 9 -9 4 -20 -6 -23 -4 -18 10 4 9 7 23 7 31 0 20 12 18 38 -6 16
-15 22 -17 22 -7 0 32 -83 76 -145 76 -16 1 -41 -5 -55 -12z m40 -45 c0 -15 5
-33 12 -40 20 -20 -7 -14 -36 9 -28 22 -34 44 -13 52 27 12 37 6 37 -21z m90
8 c0 -5 -2 -10 -4 -10 -3 0 -8 5 -11 10 -3 6 -1 10 4 10 6 0 11 -4 11 -10z"/>
<path d="M1182 1156 c-39 -13 -85 -54 -77 -67 3 -4 15 1 25 11 23 23 40 26 40
6 0 -8 3 -22 7 -31 5 -14 2 -16 -18 -10 -18 5 -21 4 -9 -4 8 -6 40 -11 71 -11
49 0 61 4 89 30 18 17 30 37 28 47 -7 39 -88 54 -156 29z m75 -42 c-9 -9 -28
6 -21 18 4 6 10 6 17 -1 6 -6 8 -13 4 -17z m52 17 c17 -11 0 -45 -31 -62 -18
-10 -20 -9 -15 6 4 9 7 28 7 41 0 25 15 30 39 15z"/>
<path d="M936 835 c-3 -8 0 -16 7 -16 7 -1 25 -3 42 -5 22 -2 26 -1 15 6 -9 6
-10 10 -3 10 6 0 14 -4 17 -9 6 -10 56 -2 56 8 0 16 -12 18 -50 11 -22 -4 -43
-3 -46 1 -8 14 -31 10 -38 -6z"/>
<path d="M1070 688 c-30 -4 -88 -6 -127 -3 -40 2 -73 0 -73 -5 0 -18 239 -15
257 4 11 11 -2 12 -57 4z"/>
<path d="M988 633 c12 -2 30 -2 40 0 9 3 -1 5 -23 4 -22 0 -30 -2 -17 -4z"/>
</g>
</svg>
